<svg width="270" height="170" viewBox="0 0 270 170" fill="none" xmlns="http://www.w3.org/2000/svg">
<path d="M208.965 121.119L173.601 85.6665C172.449 84.5122 171.018 83.6788 169.447 83.2486C167.876 82.8184 166.22 82.8063 164.643 83.2135C163.066 83.6207 161.623 84.433 160.454 85.5704C159.286 86.7078 158.434 88.1309 157.982 89.6992V89.6993C157.518 91.3122 157.493 93.0205 157.91 94.6464C158.328 96.2722 159.173 97.7559 160.357 98.9431L182.935 121.577L151.424 146.757L151.44 146.781C151.283 146.773 151.127 146.757 150.968 146.757C149.073 146.757 147.22 147.319 145.644 148.373C144.067 149.427 142.838 150.926 142.11 152.68C141.383 154.435 141.19 156.366 141.556 158.229C141.923 160.093 142.831 161.807 144.168 163.153C145.505 164.5 147.21 165.419 149.067 165.795C150.925 166.171 152.852 165.987 154.605 165.266C156.358 164.545 157.859 163.319 158.918 161.744C159.977 160.169 160.547 158.314 160.556 156.414L208.965 121.119Z" fill="#A0616A"/>
<path d="M170.711 133.593C170.711 133.593 143.125 130.741 133.93 137.586L121.833 170H196.627C196.627 170 203.727 154.822 170.711 133.593Z" fill="#2F2E41"/>
<path d="M163.972 62.5864C152.021 62.5864 142.333 52.8744 142.333 40.894C142.333 28.9136 152.021 19.2016 163.972 19.2016C175.922 19.2016 185.61 28.9136 185.61 40.894C185.61 52.8744 175.922 62.5864 163.972 62.5864Z" fill="#A0616A"/>
<path d="M185.218 81.7474C185.218 81.7474 165.125 57.9411 148.684 77.1693C138.106 89.5412 132.511 105.424 132.994 121.711L133.614 142.637L171.518 136.685L185.218 81.7474Z" fill="#CCCCCC"/>
<path d="M156.501 75.6349C157.93 75.6538 159.337 75.9843 160.625 76.6036C161.912 77.223 163.05 78.1162 163.959 79.2211C164.867 80.326 165.525 81.6161 165.885 83.0016C166.246 84.3872 166.301 85.8348 166.047 87.2439L159.23 170H136.508L146.618 84.2502C146.918 81.8698 148.074 79.681 149.87 78.0946C151.665 76.5082 153.977 75.6332 156.37 75.634C156.414 75.634 156.458 75.634 156.501 75.6349Z" fill="#A0616A"/>
<path d="M160.464 44.6468L151.167 33.6671C148.771 30.8375 146.265 27.7554 145.927 24.0595C145.555 20.008 148.013 16.0699 151.374 13.7889C154.734 11.5079 158.861 10.6496 162.907 10.3346C170.412 9.75042 178.309 10.9937 184.478 15.3171C190.647 19.6405 194.684 27.4458 193.179 34.8396C191.995 40.6614 187.63 46.2383 189.327 51.9314C191.183 58.1606 198.795 60.0718 205.009 61.9294C215.441 65.0474 225.401 71.1856 230.868 80.622C236.335 90.0584 236.311 103.07 229.024 111.176C224.305 116.425 217.188 119.08 210.151 119.479C203.114 119.878 196.109 118.217 189.435 115.944C183.289 113.851 177.209 111.159 172.37 106.821C167.531 102.484 164.045 96.2764 164.196 89.7707C164.339 83.5707 167.652 77.9229 169.013 71.8732C170.087 66.8073 169.805 61.5469 168.197 56.6254C166.588 51.7038 163.711 47.2961 159.855 43.8491" fill="#2F2E41"/>
<path d="M175.237 8.79452L169.381 7.64249C168.897 7.54727 168.399 7.54856 167.915 7.64629C167.431 7.74401 166.972 7.93628 166.562 8.21206C166.153 8.48785 165.802 8.84176 165.529 9.25362C165.256 9.66548 165.067 10.1272 164.972 10.6124L156.874 37.8534L170.101 40.4555L178.199 13.2145C178.391 12.2346 178.187 11.2183 177.631 10.3894C177.076 9.56052 176.214 8.98682 175.237 8.79452Z" fill="#336198"/>
<path d="M162.351 53.3101C156.469 53.3101 151.7 48.5295 151.7 42.6323C151.7 36.7351 156.469 31.9545 162.351 31.9545C168.234 31.9545 173.002 36.7351 173.002 42.6323C173.002 48.5295 168.234 53.3101 162.351 53.3101Z" fill="white"/>
<path d="M162.351 48.5644C159.083 48.5644 156.434 45.9085 156.434 42.6323C156.434 39.3561 159.083 36.7002 162.351 36.7002C165.619 36.7002 168.268 39.3561 168.268 42.6323C168.268 45.9085 165.619 48.5644 162.351 48.5644Z" fill="#336198"/>
<path d="M130.628 82.4776L130.639 82.4759L129.101 73.24L120.6 76.0151L121.872 84.2761C121.433 83.9914 120.911 83.8761 120.398 83.9506C119.885 84.0254 119.414 84.2851 119.07 84.6834C118.726 85.0817 118.531 85.5927 118.52 86.1252C118.509 86.6577 118.682 87.1768 119.01 87.5899C119.337 88.003 119.796 88.2831 120.306 88.3804C120.815 88.4775 121.342 88.3852 121.791 88.1202C122.241 87.8549 122.584 87.4343 122.76 86.9333C122.935 86.4321 122.931 85.8831 122.749 85.3846L122.757 85.3832L121.392 76.5181L128.542 74.1842L129.757 81.4851C129.309 81.2123 128.78 81.1138 128.267 81.2076C127.753 81.301 127.29 81.5802 126.96 81.9947C126.63 82.4092 126.455 82.9317 126.468 83.467C126.48 84.0022 126.679 84.5155 127.028 84.913C127.377 85.3107 127.853 85.5668 128.37 85.6349C128.887 85.7029 129.411 85.5785 129.846 85.2839C130.281 84.9894 130.6 84.5445 130.743 84.0298C130.887 83.5149 130.846 82.9643 130.628 82.4776Z" fill="#336198"/>
<path d="M114.117 53.8748L114.127 53.8813L119.791 44.3563L109.989 40.3461L104.83 48.7866C104.651 48.1934 104.267 47.6888 103.747 47.3627C103.226 47.0368 102.602 46.9106 101.987 47.0068C101.372 47.103 100.806 47.4153 100.389 47.888C99.9724 48.3607 99.7328 48.9629 99.713 49.587C99.6931 50.2111 99.8944 50.8164 100.281 51.2951C100.667 51.7735 101.213 52.0938 101.822 52.199C102.431 52.3039 103.062 52.1869 103.603 51.8687C104.145 51.5503 104.56 51.0514 104.777 50.4613L104.785 50.466L110.321 41.4081L118.564 44.7806L114.087 52.3101C113.89 51.7197 113.488 51.2253 112.952 50.9166C112.417 50.6076 111.785 50.5045 111.17 50.6261C110.556 50.7477 109.999 51.086 109.601 51.5793C109.204 52.0727 108.992 52.6889 109.004 53.3157C109.015 53.9427 109.25 54.5391 109.665 54.997C110.08 55.4548 110.648 55.7438 111.267 55.8113C111.885 55.8788 112.512 55.7208 113.035 55.3657C113.558 55.0104 113.941 54.4815 114.117 53.8748Z" fill="#336198"/>
<path d="M226.313 49.7738L226.326 49.7785L230.236 38.6256L219.173 36.2435L215.562 46.1531C215.252 45.5593 214.746 45.0984 214.134 44.8521C213.523 44.6063 212.846 44.5909 212.225 44.8094C211.604 45.0284 211.078 45.4663 210.743 46.0455C210.407 46.6247 210.283 47.3072 210.394 47.9713C210.504 48.6354 210.841 49.2377 211.343 49.6705C211.847 50.1037 212.484 50.3389 213.14 50.3346C213.797 50.3299 214.431 50.0862 214.929 49.647C215.427 49.2074 215.756 48.6005 215.858 47.935L215.867 47.9385L219.743 37.3038L229.046 39.3073L225.955 48.1237C225.626 47.5364 225.102 47.0899 224.479 46.8646C223.857 46.6392 223.176 46.6503 222.56 46.8957C221.944 47.1411 221.435 47.6047 221.124 48.2022C220.813 48.7998 220.72 49.4917 220.864 50.1528C221.007 50.814 221.377 51.4004 221.906 51.8059C222.435 52.2118 223.088 52.4094 223.747 52.3637C224.406 52.3176 225.027 52.0312 225.498 51.5562C225.969 51.0811 226.258 50.4486 226.313 49.7738Z" fill="#336198"/>
</svg>
